<svg id="Layer_1" data-name="Layer 1" xmlns="http://www.w3.org/2000/svg" xmlns:xlink="http://www.w3.org/1999/xlink" viewBox="0 0 290.74 95.02">
    <defs>
        <style>.cls-1{fill:url(#linear-gradient);}.cls-2{fill:#ba2025;}</style>
        <linearGradient id="linear-gradient" x1="4.06" y1="60.29" x2="67.98" y2="60.29" gradientUnits="userSpaceOnUse">
            <stop offset="0" stop-color="#d71920" />
            <stop offset="1" stop-color="#790000" />
        </linearGradient>
    </defs>
    <title>evaly svg format logo</title>
    <path class="cls-1" d="M22.58,75.77c-0.33-6.72.81-5.88,11.15-6.14,8.92-.22,15.15-0.31,25.47-4.77,10.9-4.71,8.56-10.78,8.56-26.86S49.21,24.37,30.37,24.37,4.06,32.6,4.06,49.22s0.18,28.18.18,28.18C4.24,89.31,7.7,94.22,27.51,96s40.4-4.93,40.4-4.93V73.58C55.4,79.7,23,83.59,22.58,75.77ZM23,47.89C23,41,26.09,37.52,34,37.52s15.6-1,15.6,5.69,1,9.25-3.57,11.21a22.9,22.9,0,0,1-10.63,2C22.42,56.41,23,47.89,23,47.89Z" transform="translate(-4.06 -1.33)" />
    <path d="M180.07,45.83c0.32,6.59-.8,5.77-10.93,6-8.74.21-14.85,0.31-25,4.67-10.69,4.61-8.39,10.56-8.39,26.33S154,96.22,172.43,96.22s25.8-8.06,25.8-24.36-0.17-27.62-.17-27.62c0-11.68-3.39-16.5-22.82-18.28s-31.85,4.1-31.85,4.1V47.25C155.65,41.25,179.69,38.16,180.07,45.83Zm-0.38,27.34c0,6.8-3.06,10.17-10.77,10.17s-15.3,1-15.3-5.58-1-9.06,3.5-11a22.45,22.45,0,0,1,10.42-1.95C180.23,64.81,179.69,73.16,179.69,73.16Z" transform="translate(-4.06 -1.33)" />
    <path d="M90,96.35q-1.39-.06-2.14-3.73L71.9,28.18a7.69,7.69,0,0,1-.23-1.66q0-1.3,1-1.3H90q1.45,0,2.2,3.67L103,74.12l10.89-45.23q0.69-3.67,2.14-3.67h17.43q0.93,0,.93,1.3a7.8,7.8,0,0,1-.23,1.66L118.22,92.62q-0.75,3.73-2.2,3.73H90Z" transform="translate(-4.06 -1.33)" />
    <path d="M208.78,1.52h17.37q1.45,0,1.45,2.95V93.4q0,3-1.39,2.95H208.78q-1.45,0-1.45-2.95V4.47Q207.33,1.52,208.78,1.52Z" transform="translate(-4.06 -1.33)" />
    <path d="M235.43,74.36c2,0.71,3.89,1.45,5.84,2.08a77.92,77.92,0,0,0,27.45,3.94,27.38,27.38,0,0,0,6.45-1.32,3.52,3.52,0,0,0,2.54-3.92c0-.56,0-1.13-0.08-1.69-0.21-2.29-1-3.09-3.36-3.2-3.6-.18-7.19-0.4-10.79-0.44a46.53,46.53,0,0,1-21.83-5.35c-3.93-2.11-6.1-5.28-6.22-9.7-0.13-5.1,0-10.2-.07-15.3q0-5.23-.08-10.47c0-3.6,1.71-5.44,5.31-5.49q3.21-.05,6.41,0c3.83,0.06,5.36,1.61,5.37,5.47,0,6.9,0,13.81,0,20.71,0,0.6,0,1.2.1,1.8a3.66,3.66,0,0,0,2,3c5.76,3,11.77,3.79,17.9,1.42,3.68-1.42,5.53-4,5.43-7.65-0.18-6.49-.06-13-0.05-19.47a8.2,8.2,0,0,1,.23-2.11,3.63,3.63,0,0,1,3.38-3,84.81,84.81,0,0,1,9.1-.1c2.92,0.17,4.31,1.9,4.31,4.84q0,10,0,19.92c0,10-.08,20-0.19,30.05a31.44,31.44,0,0,1-.54,6,11.4,11.4,0,0,1-8.63,9.15,72.81,72.81,0,0,1-23.8,2.63c-8.63-.49-17-2.5-25.25-4.71a1.16,1.16,0,0,1-1.1-1.18q0-7.82,0-15.64A1.44,1.44,0,0,1,235.43,74.36Z" transform="translate(-4.06 -1.33)" />
</svg>